<svg xmlns="http://www.w3.org/2000/svg" viewBox="0 0 100 90">
  <!-- Left leaf -->
  <path fill="#3CDBC0" d="
    M50 84
    C40 74, 14 60, 10 38
    C6 20, 18 8, 32 10
    C41 11, 49 21, 51 36
    Z
  "/>
  <!-- Right leaf -->
  <path fill="#3CDBC0" d="
    M50 84
    C60 74, 86 60, 90 38
    C94 20, 82 8, 68 10
    C59 11, 51 21, 49 36
    Z
  "/>
  <!-- Small back-center leaf -->
  <path fill="#2AB5A0" d="
    M50 84
    C46 68, 44 50, 48 30
    C50 20, 54 16, 56 22
    C60 32, 56 58, 50 84
    Z
  "/>
  <!-- Left vein -->
  <path stroke="white" stroke-width="2.2" fill="none" stroke-linecap="round"
        d="M32 12 C38 24, 46 50, 50 82"/>
  <!-- Right vein -->
  <path stroke="white" stroke-width="2.2" fill="none" stroke-linecap="round"
        d="M68 12 C62 24, 54 50, 50 82"/>
</svg>
